# xmcd
#
# Track frame offsets: 
#        183
#        14155
#        39948
#        66220
#        87108
#        106783
#        135608
#        159815
#        183420
#        208605
#        234948
#        263058
#        277555
#        295093
#
# Disc length: 4188 seconds
#
# Revision: 2
# Processed by: cddbd v1.5.2PL0 Copyright (c) Steve Scherf et al.
# Submitted via: ExactAudioCopy v0.99pb4
#
DISCID=af105a0e
DTITLE=Coldcut - Philosophy
DYEAR=1993
DGENRE=Electronic
TTITLE0=Philosophy
TTITLE1=Chocolate Box
TTITLE2=Pearls Before Swine
TTITLE3=What We're Living For
TTITLE4=Leaving Home
TTITLE5=Dreamer (ecu mix)
TTITLE6=Peace and Love
TTITLE7=Kinda Natural
TTITLE8=Angel Heart
TTITLE9=Autumn Leaves
TTITLE10=Sign
TTITLE11=Fat Bloke
TTITLE12=Dreamer (crazy swing mix)
TTITLE13=Bare Leaves
EXTD=
EXTT0=
EXTT1=
EXTT2=
EXTT3=
EXTT4=
EXTT5=
EXTT6=
EXTT7=
EXTT8=
EXTT9=
EXTT10=
EXTT11=
EXTT12=
EXTT13=
PLAYORDER=
